<svg version="1.2" xmlns="http://www.w3.org/2000/svg" viewBox="0 0 1493 717" width="1493" height="717"><style>.a{fill:#26344a}.b{fill:#344257}.c{fill:#3175c0}.d{fill:#fcad7b}.e{fill:#2e74c1}.f{fill:#283950}.g{fill:#9ecff4}.h{fill:#28384f}.i{fill:#25354d}.j{fill:#fcfdfd}.k{fill:#b2d8f7}.l{fill:#26374c}.m{fill:#98ccf3}.n{fill:#99ccf3}.o{fill:#d2e9f9}.p{fill:#d97252}.q{fill:#d97455}.r{fill:#2b6199}.s{fill:#a3cff4}.t{fill:#1e3248}.u{fill:#6b5b5d}.v{fill:#c5745b}.w{fill:#1c5694}.x{fill:#92c9f4}.y{fill:#e17856}.z{fill:#dc704d}.A{fill:#28456a}.B{fill:#2872c3}.C{fill:#a3d0f4}.D{fill:#a5d1f4}.E{fill:#e0e4ea}.F{fill:#a5d0f5}.G{fill:#1e3450}.H{fill:#3576ba}.I{fill:#58a4e8}.J{fill:#5ba6e9}.K{fill:#a4d0f5}.L{fill:#24466f}.M{fill:#fcfcfd}.N{fill:#1a3251}.O{fill:#8bc5f2}.P{fill:#d2dee9}.Q{fill:#dd7656}.R{fill:#ced7df}.S{fill:#9aacbb}.T{fill:#a9d1f4}.U{fill:#8dc6f3}.V{fill:#2f79ce}.W{fill:#fcc043}.X{fill:#e17754}.Y{fill:#5ba6ea}.Z{fill:#154d8e}.a0{fill:#2c75ca}.a1{fill:#2c5076}.a2{fill:#e5972c}.a3{fill:#55a1e8}.a4{fill:#67bf62}.a5{fill:#80c4cc}.a6{fill:#f8fbf8}.a7{fill:#86c2f1}.a8{fill:#bddef8}.a9{fill:#eaa130}.aa{fill:#61b7d3}.ab{fill:#275184}.ac{fill:#f8f9fa}.ad{fill:#2f7ad0}.ae{fill:#afd6f1}.af{fill:#56a2e8}.ag{fill:#60b7d1}.ah{fill:#2d77cd}.ai{fill:#4999e5}.aj{fill:#57a3e9}.ak{fill:#388ac9}.al{fill:#165094}.am{fill:#54b5ed}.an{fill:#2b74c8}.ao{fill:#307acf}.ap{fill:#7cbcee}.aq{fill:#2d7ad0}.ar{fill:#9fcef2}.as{fill:#2569ba}.at{fill:#fcab79}.au{fill:#1e64b3}.av{fill:#4697e4}.aw{fill:#f7f9fc}.ax{fill:#b1d8f8}.ay{fill:#2d78cf}.az{fill:#307bd0}.aA{fill:#3489dd}.aB{fill:#e07552}.aC{fill:#b3d8f8}.aD{fill:#1759a4}.aE{fill:#d8ecf9}.aF{fill:#2066b5}.aG{fill:#e97c55}.aH{fill:#96cbf3}.aI{fill:#d9ecfa}.aJ{fill:#3f89d8}.aK{fill:#97c9f2}.aL{fill:#3e8ede}.aM{fill:#5c9dde}.aN{fill:#74b3eb}.aO{fill:#eeeff1}.aP{fill:#91c4f1}.aQ{fill:#2977cb}.aR{fill:#b5daf9}.aS{fill:#9fcef5}.aT{fill:#2e7fd4}.aU{fill:#e8eaed}.aV{fill:#1b5397}.aW{fill:#d5e2f3}.aX{fill:#2a7fd4}.aY{fill:#c0def8}.aZ{fill:#1961ae}.b0{fill:#b6d7f5}.b1{fill:#16447f}</style><path fill-rule="evenodd" class="a" d="m549.5 158.5q2.3-22.9 1.5-46-1.2-8.1-4.5-15.5-35.6 7.7-71-2-22.1-6.2-44-13-6.4-1.9-13-1-0.8 0.8-1 2 4 13.5 2.5 27.5-1.8 7.1-6 13-9.6 9-19 18-2.3 20.5-3.5 41-3 0.2-6-0.5-4.7-9.6-10.5-18.5-14.7-14-31.5-3-3.6-19-7.5-38-3.5-23.1 1-46 13.9-35.8 52.5-37.5 22.8-26.4 58-24.5 28.9 1.5 57 8.5 19.9 2.4 38.5-4.5 5.3 1.8 4.5 7.5-1.1 8.6-7 15 5.6 0.7 11-1 8.5-2.9 17-5.5 7.8 2.5 8.5 11 3.2 18.6-7.5 34 9.4 10.2 7.5 24-0.8 1.5-2.5 2-4-1.8-8-2.5 1.4 10.8-1.5 21.5-5.8 18.1-15.5 34z"/><path fill-rule="evenodd" class="b" d="m437.5 35.5q23-2.9 43 8-1.3 2.2-4 2-38.4-9.1-68 16-1.7-2.4-0.5-5 11.1-15.9 29.5-21z"/><path fill-rule="evenodd" class="b" d="m552.5 55.5q2.8-0.4 4 2-9 15.7-27 19.5-17.7 3.2-35-2-3.1-1-5-3.5 13.5-1.2 27-1.5 20.5-1.6 36-14.5z"/><path fill-rule="evenodd" class="c" d="m1297.5 122.5q-1.3-0.2-2 1 1.5 1.8 2.5 4 0.5 72-0.5 144-0.5 0-1 0 0.3-19.5-0.5-39-1.6 3.6-1.5-1-2 0-4 0 0.2-1.6-0.5-3-0.6 5.3-4.5 9-5-1.6-4.5-7-1.5 2.8-2 6-0.5-2.5-1-5-0.5 12.5-1 25-0.5-16.5-1-33-0.3 14.3-1.5 28 0-5 0-10 1.2-50.5 0.5-101-1.2-2.3-3.5-3.5-156.5 2.6-313 6.5-22.8-0.9-46-3-13.2 2.7-26-1.5 0.8-2.3-2-4 2.7-1.7 6-2 16-1.1 32 0.5 12.7-1.1 25-4.5-4.5-0.5-9-1 10.5-0.5 21-1-17.5-0.8-35-0.5 173-4.1 346.5-9 14.3-1.6 26.5 5z"/><path fill-rule="evenodd" class="d" d="m549.5 158.5q0.1 1.9-1.5 3-0.5 23-1 46-3.8 42-31.5 73.5-11.7 11.1-28 11.5-2.8-1.3-6-1-9.8-0.3-19-3.5-34.7-13.3-64-36-6.9-6.9-11.5-15.5 9.7 37.8 39.5 63.5 17.4 14.3 39 21 5.9 1.7 12 1.5 0 1 0 2-3.6 20.9-8 42 0 1.8 1 3-23.9 11.9-48 0-4-8.9-9.5-17-19.1-19.7-31.5-44-5.9-22.8-7-46 1.4-3.4 2-7 1.5-7 3-14 0-3.5 0-7 2-7.8 0-16-0.9 0.2-1 1-3.7 2.3-8 3-15.3-1-23.5-14-14.6-23.3-3.5-48 16.8-11 31.5 3 5.8 8.9 10.5 18.5 3 0.7 6 0.5 1.2-20.5 3.5-41 9.4-9 19-18 4.2-5.9 6-13 1.5-14-2.5-27.5 0.2-1.2 1-2 6.6-0.9 13 1 21.9 6.8 44 13 35.4 9.7 71 2 3.3 7.4 4.5 15.5 0.8 23.1-1.5 46z"/><path fill-rule="evenodd" class="e" d="m924.5 126.5q17.5-0.3 35 0.5-10.5 0.5-21 1 4.5 0.5 9 1-12.3 3.4-25 4.5-16-1.6-32-0.5-3.3 0.3-6 2 2.8 1.7 2 4 12.8 4.2 26 1.5 23.2 2.1 46 3-116 2.2-232 5.5-1.3 1.1-2 2.5-1.5 54.7-1 110-1.2-54.2-1.5-109-0.5 34-1 68-0.8 15.7-3 0-2.4 2.6-3.5 6 2.3 0.4 3 6-0.1 2.7-1.5 5-0.5-0.5-1-1-0.1 7.3-2 14-1.8-3-2.5-6.5 0.9-5.7 1-11.5-3.3-25.3-1-51-1.2-14-1.5-28-0.5 1-1 2-0.3-3.8-1.5-7 0-1 0-2 1.8-11.4 13-14.5 102.5-3.1 205-5.5z"/><path fill-rule="evenodd" class="f" d="m446.5 127.5q9.6-0.6 19 1.5 1.4 0.6 2.5 1.5 1.2 3.9-0.5 7.5-22.6-1.9-43 7.5-1.6-2.5 0.5-5 9.1-9.4 21.5-13z"/><path fill-rule="evenodd" class="g" d="m1274.5 241.5q-1.2-15.7-1.5-32-2.1 0.8-4 1-7.3-2.8-14-7-0.9-2.7 1-1 4.4-1.9 5.5-6.5-3.6-26.1-30-22.5-10-1.5-20-3-9.5 2.3-19 5-2.2 4.9 2 8.5-1 0.3-2 0.5-22.7-7.1-46-11.5 2.4 1.3 5 2-2 1 0 2-2.2 0.3-4 1.5 1 2.9 1.5 6 7.2 4.3 12.5 10.5-1.5 0.5-3 1 2.5 0.5 5 1-6.9 3.2-13.5-0.5-1.4 0.6-2.5 1 4.7 1.3 9 3 1 4.4 1 9-3.9-0.6-6.5 2-1.1-3.7-2.5 0-24.7-27.4-50-54.5-4.8-1.2-9 0.5-119 3.8-238 9-6.7-1.5-14-1 0.2 5.5-0.5 11-0.5-1.5-1-3-0.8 3.6-2 7-0.8 1.5-2.5 2-3.2-0.8-6.5-1-20.1 2.7-39.5 4-12.4-2.3-25-3-6.6 2.8-12.5 0-3.1 1.4-6.5 1-0.3 5.9-1.5 0-1.3 1.5-2.5 3-3.3-3.4-6.5-7-1.1 5.6-3 11-1.3-9.5-2 1-0.3-20.1-1.5-40 0.7-1.4 2-2.5 116-3.3 232-5.5 156.5-3.9 313-6.5 2.3 1.2 3.5 3.5 0.7 50.5-0.5 101z"/><path fill-rule="evenodd" class="h" d="m512.5 132.5q18-1.7 30.5 11 1.6 2.4 2.5 5-0.5 1-1 2-15.5-8.2-33-8.5-4.3-5.4 1-9.5z"/><path fill-rule="evenodd" class="i" d="m447.5 155.5q7.9-1.4 10.5 6 1.2 7.6-1 15-8.5 10.7-14-2-2.6-10.8 4.5-19z"/><path fill-rule="evenodd" class="j" d="m1089.5 157.5q4 0 8 0 0 28 0 56 25-1 50-1-0.5 46.8 1 93 35.3 1.3 42 36 0 8.5 0 17 8.7 0 12.5 8 1 34.5 0 69-2.4 8.3-10.5 10-0.5 0-1 0-22 0-44 0 0 14.5 0 29-154-4.2-308-7 0-18 0-36 0-37.5 0-75 0-94.5 0-189 5.8 0.5 11-1 0.5 0 1 0 119-5.2 238-9z"/><path fill-rule="evenodd" class="k" d="m1089.5 157.5q4.2-1.7 9-0.5 25.3 27.1 50 54.5 0 1 0 2 0 46 0 92-1.5-46.2-1-93-25 0-50 1 0-28 0-56-4 0-8 0z"/><path fill-rule="evenodd" class="l" d="m517.5 159.5q8.3-2.1 10.5 6 2 10-3.5 18.5-10.3 3.7-11.5-7.5-2.4-9.9 4.5-17z"/><path fill-rule="evenodd" class="m" d="m724.5 151.5q1.2 19.9 1.5 40 0.7-10.5 2-1 1.9-5.4 3-11 3.2 3.6 6.5 7 1.3-1.5 2.5-3 1.2 5.9 1.5 0 3.4 0.4 6.5-1 5.9 2.8 12.5 0 12.6 0.7 25 3 19.4-1.3 39.5-4 3.3 0.2 6.5 1 1.7-0.5 2.5-2 1.2-3.4 2-7 0.5 1.5 1 3 0.7-5.5 0.5-11 7.3-0.5 14 1-0.5 0-1 0-6 0-12 0 0 56 0 112-2.6-3.8-2.5-9-1.6 14-2 28-1-4-2 0-2.1-8.3-1.5-17-4.2-0.5-8-2.5-6.5-7.1-14-13-8.9-3.3-17.5-6.5-3.7 1.6-8.5 1.5-5.3-3.8-11.5-5.5-0.9 1.4 0.5 2.5-4.7 2.3-1 5.5-4.3 3-8 6.5-8.9 3.1-18 5 2.3 0.5 3.5 2.5 3.5-0.1 7.5-0.5 3.8-5.4 10-3.5 4.5-0.8 9-1.5 0.8-2.1 1-4 5.6-3.2 12-2 6.5 5.6 13 11 11.1 1.6 22 4.5 2.4 9.8 2 20 1.8-0.3 3 1 1.3 3.4 1 7-24-3.2-2 4 0.3 2.5-1 4.5-4.2 1.6-8.5 2.5-23-2.8-44.5-11.5-20.5-3.9-40.5-10.5-2.2 0.6-4 2-0.6-1.8-2-3-0.5 19.5-1 39-0.3-19.3-1.5-38 0-18 0-36-0.5-55.3 1-110z"/><path fill-rule="evenodd" class="n" d="m1274.5 241.5q0 5 0 10 0 27-1 54-1.2-11.2-1.5-23-3.1 8.7-2.5 18-5.5 1.2-11 0.5-13.9-8-30-10-2.6-2.3-6-3-15.7-3.1-30-10-9-1.6-18-3.5-0.9 0.3-1.5 1-1.2-2-3.5-2.5-9.5-0.4-18-4.5-1.1 1.3-1.5 3-0.3-29.3-1.5-58 0-1 0-2 1.4-3.7 2.5 0 2.6-2.6 6.5-2 0-4.6-1-9-4.3-1.7-9-3 1.1-0.4 2.5-1 6.6 3.7 13.5 0.5-2.5-0.5-5-1 1.5-0.5 3-1-5.3-6.2-12.5-10.5-0.5-3.1-1.5-6 1.8-1.2 4-1.5-2-1 0-2-2.6-0.7-5-2 23.3 4.4 46 11.5 1-0.3 2-0.5-4.2-3.6-2-8.5 9.5-2.7 19-5 10 1.5 20 3 26.4-3.6 30 22.5-1.1 4.6-5.5 6.5-1.9-1.7-1 1 6.7 4.2 14 7 1.9-0.2 4-1 0.3 16.3 1.5 32z"/><path fill-rule="evenodd" class="o" d="m850.5 166.5q-5.2 1.5-11 1 0 94.5 0 189-1.5-32.7-1-66 0-6 0-12 0-56 0-112 6 0 12 0z"/><path fill-rule="evenodd" class="p" d="m354.5 172.5q21.2-1.1 17 19.5 0.8 5.3 2 10.5-10.5-1.7-9-12.5 0.1-5.1 1.5-9.5-5.2-5.2-12.5-6 0.5-1 1-2z"/><path fill-rule="evenodd" class="q" d="m496.5 166.5q2.4 17.5 9.5 34 2.9 9.9-6.5 13.5-5.9 2.2-12 1-2.1-0.6-3-2.5 6-1.1 12-2.5 4-2 6-6-9.3-17.8-6-37.5z"/><path fill-rule="evenodd" class="r" d="m1297.5 122.5q9.6 1.9 13.5 11 0.5 111.8-1.5 223 0.3-47-0.5-94-0.5 3-1 6-0.5-4.5-1-9-0.5 4-1 8-0.5-3.5-1-7-0.2 4.5-4.5 5 0 3.6-1.5 7-0.6-0.8-1.5-1 1-72 0.5-144-1-2.2-2.5-4 0.7-1.2 2-1z"/><path fill-rule="evenodd" class="s" d="m949.5 206.5q12.5-0.2 25 0.5 4 4 0 8-47.5 2.5-95 3-4-4 0-8 4.5-0.5 9-1 30.8-0.5 61-2.5z"/><path fill-rule="evenodd" class="t" d="m378.5 219.5q1.5 7.2 1 15 0 3.5 0 7-4-9.5-9-19 4.3-0.7 8-3z"/><path fill-rule="evenodd" class="u" d="m378.5 219.5q0.1-0.8 1-1 2 8.2 0 16 0.5-7.8-1-15z"/><path fill-rule="evenodd" class="v" d="m442.5 217.5q3-0.2 6 0.5 1.1 2.1 0.5 4.5 24.9 21.8 56.5 11.5 6.3-2.9 12-6.5 5.3 1.7 1 5.5-8.3 3.9-17 7-33.1 7.8-57.5-15.5-5.8 2.2-4-4 1.6-1.3 2.5-3z"/><path fill-rule="evenodd" class="w" d="m1309.5 356.5q0 23.5 0 47 0 29 0 58-0.5 0-1 0 0.3-48-0.5-96 0-7-3-13-1.5 4.7-4 1-0.5 3.5-1 7-0.5-2.7-2-1-0.3-10.3-1.5-20 0-34 0-68 0.5 0 1 0 0.9 0.2 1.5 1 1.5-3.4 1.5-7 4.3-0.5 4.5-5 0.5 3.5 1 7 0.5-4 1-8 0.5 4.5 1 9 0.5-3 1-6 0.8 47 0.5 94z"/><path fill-rule="evenodd" class="x" d="m1148.5 213.5q1.2 28.7 1.5 58 0.4-1.7 1.5-3 8.5 4.1 18 4.5 2.3 0.5 3.5 2.5 0.6-0.7 1.5-1 9 1.9 18 3.5 14.3 6.9 30 10 3.4 0.7 6 3 16.1 2 30 10 5.5 0.7 11-0.5-0.6-9.3 2.5-18 0.3 11.8 1.5 23-0.3 62.5-2 125-1-17.8-2-36-0.2-9.7 1-19-0.8-3.5-1.5-7-0.5 1-1 2-1.3-1.5-2.5-3-0.9 0.3-1.5 1-10.6-5.8-22.5-10-1.8-3.5 1-6.5-1-1-2-2 0.9-1.9 0-4.5 0.3-2.2 2-3.5-3.3-1.6-7-2-2.8-2.8-4.5-6.5-6.1-3.3-12 1-3.6-1.7-7.5-0.5 1 0.5 2 1-6.7 4.2-10 11 2.2 3.1-2 2.5 0.2 1.6-0.5 3-0.5-2-1-4-0.5 1-1 2-1-2-2 0-0.5-2-1-4-0.5 1-1 2-1-2-2-4-0.5 1.5-1 3-0.3-2.8-1.5-5-6.7-34.7-42-36 0-46 0-92z"/><path fill-rule="evenodd" class="y" d="m481.5 291.5q-2.5 15.4-4 31-6.1 0.2-12-1.5-21.6-6.7-39-21-29.8-25.7-39.5-63.5 4.6 8.6 11.5 15.5 29.3 22.7 64 36 9.2 3.2 19 3.5z"/><path fill-rule="evenodd" class="z" d="m374.5 262.5q1.1 23.2 7 46-10.4-17.5-10.5-38 0.6-4.6 3.5-8z"/><path fill-rule="evenodd" class="A" d="m585.5 297.5q-0.6 3.3-4 4-16.8-7-34.5-12-2.7 0.8-0.5 2.5 17 5.4 34 10.5-2.9 2.5-6 5-14.4-6.2-30-10.5-3.1-1-5-3.5 0.9-5.8 6-8 19.9 6.5 40 12z"/><path fill-rule="evenodd" class="B" d="m706.5 148.5q1.2 3.2 1.5 7 0.5-1 1-2 0.3 14 1.5 28-2.3 25.7 1 51-0.1 5.8-1 11.5 0.7 3.5 2.5 6.5 1.9-6.7 2-14 0.5 0.5 1 1 1.4-2.3 1.5-5-0.7-5.6-3-6 1.1-3.4 3.5-6 2.2 15.7 3 0 0.5-34 1-68 0.3 54.8 1.5 109 0 18 0 36-0.4 60.5 1 121-0.3 27.5 0.5 55 1.4 3.9 5.5 4.5 267.5 8.9 535 17 3.7-1.8 5.5-5.5 0.8-20.5 0.5-41 0-9 0-18 1.7-62.5 2-125 1-27 1-54 1.2-13.7 1.5-28 0.5 16.5 1 33 0.5-12.5 1-25 0.5 2.5 1 5 0.5-3.2 2-6-0.5 5.4 4.5 7 3.9-3.7 4.5-9 0.7 1.4 0.5 3 2 0 4 0-0.1 4.6 1.5 1 0.8 19.5 0.5 39 0 34 0 68-1.7 92.5-2.5 185-1.6 7.2-7.5 11-9.5 2.3-19.5 2-79.3-3.5-158.5-7-10.7-2.2-22-2.5-67-3.2-134-5.5 0.4 2.9-1 5 0-2 0-4-112-5.6-224-10.5-7.7-1.2-15-4-4.5-3.2-5.5-8.5-0.8-73.5-0.5-147 7 0.2 14-0.5-0.8-1.1-2-1.5-5.2-3.9-11-7-1.5-98-1-196z"/><path fill-rule="evenodd" class="C" d="m1025.5 267.5q41.5-0.3 83 0.5 2.2 3.9-1 7-114 3.1-228 4-2.3-4.4 1-8 72.8-0.6 145-3.5z"/><path fill-rule="evenodd" class="x" d="m838.5 278.5q0 6 0 12-1.2 27.7-1.5 56-0.5-1-1-2 0.5 6.7-4.5 11-3.8-3.8-5 2-3.3 3-7 5.5-7.6 1.5-15 4-0.5 3.1-0.5 6.5-11.5-2.5-23.5-6.5-1.8-0.7-2.5-2.5-0.5 0.5-1 1-0.2-3.2 1-6-4.7-3.7-10.5-5.5-3.3-3.8-7.5-6.5-0.5 0.5-1 1-6.1-0.7-12.5-3-6.4 2.7-12.5 6-1.4-0.8-2.5-2-1.5 2-4 2-0.7-4.5-1.5-9-0.8 35-0.5 70 0.4 3.4-1 6-1.4-60.5-1-121 1.2 18.7 1.5 38 0.5-19.5 1-39 1.4 1.2 2 3 1.8-1.4 4-2 20 6.6 40.5 10.5 21.5 8.7 44.5 11.5 4.3-0.9 8.5-2.5 1.3-2 1-4.5-22-7.2 2-4 0.3-3.6-1-7-1.2-1.3-3-1 0.4-10.2-2-20-10.9-2.9-22-4.5-6.5-5.4-13-11-6.4-1.2-12 2-0.2 1.9-1 4-4.5 0.8-9 1.5-6.2-1.9-10 3.5-4 0.4-7.5 0.5-1.2-2-3.5-2.5 9.1-1.9 18-5 3.7-3.5 8-6.5-3.7-3.2 1-5.5-1.4-1.1-0.5-2.5 6.2 1.7 11.5 5.5 4.8 0.1 8.5-1.5 8.6 3.2 17.5 6.5 7.5 5.9 14 13 3.8 2 8 2.5-0.6 8.7 1.5 17 1-4 2 0 0.4-14 2-28-0.1 5.2 2.5 9z"/><path fill-rule="evenodd" class="D" d="m982.5 240.5q63-0.3 126 0.5 2.2 3.9-1 7-114 1.9-228 3-4-4 0-8 51.7-1.5 103-2.5z"/><path fill-rule="evenodd" class="E" d="m581.5 301.5q0 1-1 1-17-5.1-34-10.5-2.2-1.7 0.5-2.5 17.7 5 34.5 12z"/><path fill-rule="evenodd" class="F" d="m1027.5 295.5q36-0.3 72 0.5 4.2 4.4-1 8-109.5 2.7-219 3-2.2-3.9 1-7 73.7-2.3 147-4.5z"/><path fill-rule="evenodd" class="G" d="m539.5 293.5q1.9 2.5 5 3.5 15.6 4.3 30 10.5-3.6 3.6-8 6-14.4-4.8-29-9-0.4-5.8 2-11z"/><path fill-rule="evenodd" class="H" d="m1180.5 365.5q-7 0-14 0 0.3-13-0.5-26-5.9-12.9-20-11-11.8-2.1-18 8-2.2 14.3-1.5 29-7 0-14 0-9.2-61.5 51-47.5 12.7 6.6 16.5 20.5 0.8 13.5 0.5 27z"/><path fill-rule="evenodd" class="I" d="m481.5 291.5q3.2-0.3 6 1 5 7 11 13 18.1 37.2 26 78-0.5 1.5-1 3-12.7-12-25-24.5-1.4-0.7-3-0.5-7 17-14 34 21.1-5.3 43-4.5 0.8-0.8 1.5-1.5-0.8-46.1-26.5-84 28.4 11.3 58 19-8.4 40.4-20.5 80-34.8 29-72.5 54-1.7-5.7-0.5-12 5.6-38.9 9.5-78 6.1-21.7 4-44 0-1 0-2 1.5-15.6 4-31z"/><path fill-rule="evenodd" class="J" d="m376.5 255.5q-0.6 3.6-2 7-2.9 3.4-3.5 8 0.1 20.5 10.5 38 12.4 24.3 31.5 44 5.5 8.1 9.5 17 4.8 14.3 8 29-1.8 1-2 3.5 0.8 2.7 0 4.5-1-4.4-3.5-8-0.5 0.5-1 1-0.2-3.3-2.5-5.5 0.7-0.6 1-1.5-3-1.9-1-4.5-1.6-7.6-2.5-15.5-0.6-0.7-1.5-1-2.9 4.8-4 10-6-9.5-12-19-18.5 15-37 30-0.5-0.5-1-1-5.5-14.7-9.5-30-7.5-35.2-12.5-70 10.3-14.1 21.5-28 5.5-6.3 13.5-8z"/><path fill-rule="evenodd" class="K" d="m1012.5 325.5q33.5-0.3 67 0.5 2.3 4.4-1 8-99.5 2-199 2-2.2-3.9 1-7 66.2-2 132-3.5z"/><path fill-rule="evenodd" class="L" d="m622.5 311.5q5.4 1.7 11 3 7.7 4.1 16 7.5 6 0.7 12 0.5 12.4 4.4 25 8.5 1.1 1 1 2.5-1 3-2 6-1 0-1 1-28.2-6.4-55-17-0.9 0.2-1 1-11.3-3.9-22-9 7.6-3.4 16-4z"/><path fill-rule="evenodd" class="M" d="m1166.5 365.5q-20 0-40 0-0.7-14.7 1.5-29 6.2-10.1 18-8 14.1-1.9 20 11 0.8 13 0.5 26z"/><path fill-rule="evenodd" class="N" d="m628.5 324.5q0.1-0.8 1-1 26.8 10.6 55 17-1.2 5.3-4 10-15.8-2.8-31-8 0.9-5.2-3-8.5-8.8-5.2-18-9.5z"/><path fill-rule="evenodd" class="O" d="m1271.5 430.5q0 9 0 18-1.2 19.7-1.5 40-0.5-27.5-1-55-0.5 7-1 14-3.4 3-7.5 0-2.1 3.9-2.5-1-0.5 2.5-1 5-0.1-3.7-2.5-6 0.4 4.6 0 8.5-4.3 0-8.5 0.5-0.6-1.8-2-3-1.5 0.7-3.5 0.5-2.5 2.8-5 5.5 3.7 1.6 0 2.5 3.7 3.4 0.5 7.5-3.5-0.3-7 2-3.8-2.3-11-3-3.5 2-7 0-3.1 1.8 0.5 2.5-8.7-0.1-17-3 1.8-0.6 3-2-13.3-5.9-1-13.5-1-2.9-4-3.5 3.9-1.2 0-1.5 8.1-1.7 10.5-10 1-34.5 0-69-3.8-8-12.5-8 0-8.5 0-17 1.2 2.2 1.5 5 0.5-1.5 1-3 1 2 2 4 0.5-1 1-2 0.5 2 1 4 1-2 2 0 0.5-1 1-2 0.5 2 1 4 0.7-1.4 0.5-3 4.2 0.6 2-2.5 3.3-6.8 10-11-1-0.5-2-1 3.9-1.2 7.5 0.5 5.9-4.3 12-1 1.7 3.7 4.5 6.5 3.7 0.4 7 2-1.7 1.3-2 3.5 0.9 2.6 0 4.5 1 1 2 2-2.8 3-1 6.5 11.9 4.2 22.5 10 0.6-0.7 1.5-1 1.3 1.5 2.5 3 0.5-1 1-2 0.7 3.5 1.5 7-1.2 9.3-1 19 1 18.2 2 36z"/><path fill-rule="evenodd" class="P" d="m706.5 146.5q0 1 0 2-0.5 98 1 196 5.8 3.1 11 7-1.7 1.6-4 0.5-14-5-28-10-1.1-1-1-2.5 1-3 2-6 8.8 4.8 17.5 10 0.3-98.8 1.5-197z"/><path fill-rule="evenodd" class="Q" d="m477.5 324.5q2.1 22.3-4 44-1.3 0.9-3 1-1-1.2-1-3 4.4-21.1 8-42z"/><path fill-rule="evenodd" class="R" d="m653.5 339.5q1.7-1.6 4-0.5 8.7 2.6 17 6-10.8-1-21-5.5z"/><path fill-rule="evenodd" class="S" d="m685.5 339.5q-0.1 1.5 1 2.5 14 5 28 10 2.3 1.1 4-0.5 1.2 0.4 2 1.5-7 0.7-14 0.5-13-1.5-26-3 2.8-4.7 4-10 0-1 1-1z"/><path fill-rule="evenodd" class="T" d="m923.5 355.5q28-0.3 56 0.5 3.9 3.9 0 8-50 2-100 1-2.7-5.1 2-8 21.3-0.3 42-1.5z"/><path fill-rule="evenodd" class="U" d="m838.5 290.5q-0.5 33.3 1 66 0 37.5 0 75-1.2-8.2-1.5-17-2.2 2.8-2.5 6.5-0.6 7.3-2 14.5-1.5 0.7-2.5 2-0.6-1.4-1.5-2.5-3-0.2-5.5-0.5-6.2 2.3-12 3-7.7-4.2-16.5-6-1.4 0.2-2.5 1-4.1-4.1-10-6-4.5 2.4-8-1-0.5 0.5-1 1-10.7-1.7-21.5-3.5-4.2-2.2-8-5-6.8-0.1-12.5-3.5-2 1.9-4 4-1.5-3-2.5-6-0.3-35 0.5-70 0.8 4.5 1.5 9 2.5 0 4-2 1.1 1.2 2.5 2 6.1-3.3 12.5-6 6.4 2.3 12.5 3 0.5-0.5 1-1 4.2 2.7 7.5 6.5 5.8 1.8 10.5 5.5-1.2 2.8-1 6 0.5-0.5 1-1 0.7 1.8 2.5 2.5 12 4 23.5 6.5 0-3.4 0.5-6.5 7.4-2.5 15-4 3.7-2.5 7-5.5 1.2-5.8 5-2 5-4.3 4.5-11 0.5 1 1 2 0.3-28.3 1.5-56z"/><path fill-rule="evenodd" class="d" d="m661.5 322.5q-6 0.2-12-0.5-8.3-3.4-16-7.5-3.8-3.8-9.5-5-1.5 0.5-1.5 2-8.4 0.6-16 4 10.7 5.1 22 9 9.2 4.3 18 9.5 3.9 3.3 3 8.5-1.9 13.2-3 26 0.2-7-0.5-14-2.8-2.8-5.5-5.5-23.9-11-50-10.5 19.6 4.8 39 10.5 16.9 4.5 12.5 21.5-0.6 1.4-2 2-20.1-12.4-43.5-12 18.4 6.5 37 13.5 7.1 4.9 4.5 13.5-3.1 14.1-15.5 21.5-4.5 0.7-9 0.5-0.5-13.3 13-15.5 2-1 0-2-18.5-3.7-19 15.5-4.6 15.5-17 25.5-6.3 3.1-13 5-47 65.2-99 126.5-15.5 18.2-34 33.5-9.6 3.2-19-0.5-0.9 0.2-1 1-32-20.7-41.5-58-3.9-12.4-1-25 2.5-3.7 5.5-7 31.3-18.9 61-40 8.4-4.4 16-10 37.7-25 72.5-54 12.1-39.6 20.5-80 1.4-2.3 2.5-5 3.5-2.8 6.5-6 4.4-2.4 8-6 3.1-2.5 6-5 1 0 1-1 3.4-0.7 4-4 19.4-9.4 41-9.5 18.3 8.4 33 22 8.2 5.5 2 12.5z"/><path fill-rule="evenodd" class="V" d="m498.5 305.5q0.5 0 1 0 25.7 37.9 26.5 84-0.8 0.8-1.5 1.5-21.9-0.8-43 4.5 7-17 14-34 1.6-0.2 3 0.5 12.3 12.5 25 24.5 0.5-1.5 1-3-7.9-40.8-26-78z"/><path fill-rule="evenodd" class="W" d="m1126.5 365.5q20 0 40 0 7 0 14 0 3 0 6 0 0 12.5 0 25 0 20.5 0 41-37.1-0.5-74 1 4.4-20.4-9-36-0.3-14.5 0.5-29 11.4-1 22.5-2z"/><path fill-rule="evenodd" class="X" d="m646.5 368.5q-1.8 5.1-4.5 10-0.5 13.1-7.5 24-9.3 8.8-22 9-1.6-3.1-5-4 0.5-19.2 19-15.5 2 1 0 2-13.5 2.2-13 15.5 4.5 0.2 9-0.5 12.4-7.4 15.5-21.5 2.6-8.6-4.5-13.5-18.6-7-37-13.5 23.4-0.4 43.5 12 1.4-0.6 2-2 4.4-17-12.5-21.5-19.4-5.7-39-10.5 26.1-0.5 50 10.5 2.8 2.8 5.5 5.5 0.7 7 0.5 14z"/><path fill-rule="evenodd" class="M" d="m473.5 368.5q-3.9 39.1-9.5 78-1.2 6.3 0.5 12-7.6 5.6-16 10-8.4-35.3-18-70-3.2-14.7-8-29 24.1 11.9 48 0 1.7-0.1 3-1z"/><path fill-rule="evenodd" class="Y" d="m340.5 291.5q-0.3 53.7 18.5 104 2.2 3.3 6 4 5.1-0.9 9.5-3.5 6.9-1.5 14-1.5 13.5-0.2 27 0.5-10.5 0.5-21 1 8.1 0.5 16 2.5 0.6 1.2 1 2.5-2.9 4.6-7.5 7.5-4.3 9.6-9 20-3.6 3.5-7 7-4.1 0.7-8-2-12.5-4.8-23.5-14.5-5.9-3.2-12-5.5 0-1.5 0-3-4.9-0.3-1 2-2.5 1.1-5-1-7.5 3.2-11-4-1.2-1.3-3-1 0.2-2.1-0.5-4-1.7 0.2-3.5 1-15.6-26.4-41-43.5-22.4-11.7-47-8 41.5 2.1 68.5 33.5 13.5 17 24 36 21.7 43.8 39 89-34.7-9.4-65.5 9-0.7 0.1-1-0.5 2.6-3.1 6-5-1.4-1.7 1-3-1.4-0.6-2.5-1.5-3.5 2-7 4-0.5-0.5-1-1-3.6 4.1-8 7-3.3 4.5 1.5 7.5-4 4.5-8 9 2 1.5 0 3 5.6 2.5 0 4 0 3.9 1 8-9.4 8.9-18.5 17.5 0 2 0 4-1.1-1.7-2.5 0-1 4-2 8-1.5 1-3 2-6.7-8.5-12-18-1.7-4.2-3.5-1-0.5-1.2-1.5-2-1-12.2-2-24 0.3-2.8-2-4.5-6.5-2.1-12-5.5-25.2-66.8-19.5-138 2.9-24.6 18.5-43.5 21.5-15.3 46-26 36.6-15.5 74-28.5z"/><path fill-rule="evenodd" class="Z" d="m1296.5 339.5q1.2 9.7 1.5 20 1.5-1.7 2 1 0.5-3.5 1-7 2.5 3.7 4-1 3 6 3 13 0.8 48 0.5 96 0.3 31-0.5 62-1.6 4.6-5.5 7.5-7.6 3.6-16 4.5 5.9-3.8 7.5-11 0.8-92.5 2.5-185z"/><path fill-rule="evenodd" class="a0" d="m340.5 291.5q0.5 0 1 0 5 34.8 12.5 70 4 15.3 9.5 30 0.5 0.5 1 1 18.5-15 37-30 6 9.5 12 19 3 5.5 6 11-15.7 1-31 2-7.1 0-14 1.5-4.4 2.6-9.5 3.5-3.8-0.7-6-4-18.8-50.3-18.5-104z"/><path fill-rule="evenodd" class="a1" d="m1142.5 382.5q16.2 0 13.5 16-3.2 3.1-3.5 7.5 1.8 7.1 2 14.5-8 0-16 0-0.2-8.1 2-16-10.8-12.3 2-22z"/><path fill-rule="evenodd" class="a2" d="m1186.5 365.5q4.3-0.7 7.5 2 1 33.5 0 67-4.4 4.1-10.5 3 2.4-2.4 6-3.5-2.5-21.6-3-43.5 0-12.5 0-25z"/><path fill-rule="evenodd" class="a3" d="m430.5 398.5q9.6 34.7 18 70-29.7 21.1-61 40-19.2-21.4-35.5-45-15.4-30.3-31.5-60 1.8-0.8 3.5-1 0.7 1.9 0.5 4 1.8-0.3 3 1 3.5 7.2 11 4 2.5 2.1 5 1-3.9-2.3 1-2 0 1.5 0 3 6.1 2.3 12 5.5 11 9.7 23.5 14.5 3.9 2.7 8 2 3.4-3.5 7-7 4.7-10.4 9-20 4.6-2.9 7.5-7.5-0.4-1.3-1-2.5-7.9-2-16-2.5 10.5-0.5 21-1-13.5-0.7-27-0.5 15.3-1 31-2-3-5.5-6-11 1.1-5.2 4-10 0.9 0.3 1.5 1 0.9 7.9 2.5 15.5-2 2.6 1 4.5-0.3 0.9-1 1.5 2.3 2.2 2.5 5.5 0.5-0.5 1-1 2.5 3.6 3.5 8 0.8-1.8 0-4.5 0.2-2.5 2-3.5z"/><path fill-rule="evenodd" class="a4" d="m1103.5 396.5q13.4 15.6 9 36-1.2 2.3-1 5-13.5 26.2-43 22.5-38.5-13.3-27.5-52.5 16-28.6 47.5-19.5 8.1 3.5 15 8.5z"/><path fill-rule="evenodd" class="a5" d="m1382.5 485.5q12-36.8 39-64.5-0.5-0.3-1-0.5-30.9 25.9-44 64-15.3-64.3 48-82.5 6.5-0.7 13-0.5 5.9 28-5.5 54-17.5 26.7-49.5 30z"/><path fill-rule="evenodd" class="a6" d="m1090.5 406.5q9.8-1.5 7.5 8-12.3 14.3-24.5 28.5-3.7 1.1-7-1-7.4-7.6-14.5-15.5 0-10.1 9.5-5.5 4.3 5.4 10 8 10-10.9 19-22.5z"/><path fill-rule="evenodd" class="a7" d="m725.5 412.5q1 3 2.5 6 2-2.1 4-4 5.7 3.4 12.5 3.5 3.8 2.8 8 5 10.8 1.8 21.5 3.5 0.5-0.5 1-1 3.5 3.4 8 1 5.9 1.9 10 6 1.1-0.8 2.5-1 8.8 1.8 16.5 6 5.8-0.7 12-3 2.5 0.3 5.5 0.5 0.9 1.1 1.5 2.5 1-1.3 2.5-2 1.4-7.2 2-14.5 0.3-3.7 2.5-6.5 0.3 8.8 1.5 17 0 18 0 36 154 2.8 308 7 1.5-13.7 1-28 21.8 0.5 43-1 0.5 0 1 0 3.9 0.3 0 1.5 3 0.6 4 3.5-12.3 7.6 1 13.5-1.2 1.4-3 2 8.3 2.9 17 3-3.6-0.7-0.5-2.5 3.5 2 7 0 7.2 0.7 11 3 3.5-2.3 7-2 3.2-4.1-0.5-7.5 3.7-0.9 0-2.5 2.5-2.8 5-5.5 2 0.2 3.5-0.5 1.4 1.2 2 3 4.2-0.5 8.5-0.5 0.4-3.9 0-8.5 2.4 2.3 2.5 6 0.5-2.5 1-5 0.4 4.9 2.5 1 4.1 3 7.5 0 0.5-7 1-14 0.5 27.5 1 55 0.3-20.3 1.5-40 0.3 20.5-0.5 41-1.8 3.7-5.5 5.5-267.5-8.1-535-17-4.1-0.6-5.5-4.5-0.8-27.5-0.5-55 1.4-2.6 1-6z"/><path fill-rule="evenodd" class="a8" d="m954.5 429.5q39.2 1.5 79 1 0 2 0 4-53.5 0-107 0 8.9-3.1 16.5-9-0.9 3.8 0.5 7.5 6 0 11-3.5z"/><path fill-rule="evenodd" class="a9" d="m1186.5 390.5q0.5 21.9 3 43.5-3.6 1.1-6 3.5-36 0-72 0-0.2-2.7 1-5 36.9-1.5 74-1 0-20.5 0-41z"/><path fill-rule="evenodd" class="aa" d="m1309.5 403.5q65.3 7.2 52 71-8.9-12.6-18.5-25-12.7-12.9-27.5-23-0.5 0.5-1 1 22.7 18 38.5 42 2.7 4.9 4.5 10-28.1 1.3-48-18 0-29 0-58z"/><path fill-rule="evenodd" class="ab" d="m954.5 429.5q-5 3.5-11 3.5-1.4-3.7-0.5-7.5-7.6 5.9-16.5 9-8.6 3.9-18 2.5-3.8-2-6-5.5-11 4.9-23 4.5-2-1.5 0-3 12.3-1.1 24-4.5-0.4-5.9 2.5-11 16.3-26.8 45.5-38.5 11.6-2.9 10.5 8.5-9.6 16.6-25.5 27.5-14.1 8.5-29 15.5 2.9 5.5 9 3.5 19.8-6.4 36-19 1.9-0.7 4-0.5 0.2 1.6-0.5 3-21.5 21.7 3.5 3.5 8.5-8.5 17-17 1.4-0.7 3-0.5-1.1 6.2-5.5 11-2.1 3.2-2.5 7 14.1-5.2 28.5-10 2.6-0.1 4 2 1.5 3.4 2.5 7 2 0.5 4 1 9-1.5 18-3 0 1.5 0 3-5.2 0.5-10 2.5-6.5 1-13 0-3.4-3-3-7.5-3.5-0.2-7 0.5-11.3 4.5-23 7.5-5.7 0.8-6-5-6.1 5-12 10z"/><path fill-rule="evenodd" class="ac" d="m951.5 382.5q3.5 0 7 0-0.1 6.8-4.5 12-19.4 21.8-46.5 30 7.1-18.9 24-30.5 9.4-6.9 20-11.5z"/><path fill-rule="evenodd" class="ad" d="m607.5 407.5q3.4 0.9 5 4-1.2 3.2-1.5 7-12.7 17.3-19 38-3.9 16.9 2 33 8.6 11.1 16 23 7.3 7.9 17.5 3.5 16.6-7.2 34-12 5.5-1 11 0 4.8 2.6 1 6-7.4 1.9-15 3-5.3 1.4-10 4 12.9 2 24 9 8.1 5.1 11.5 13.5-37.2-27.8-80.5-10.5-9.7 4.6-19 10-2.3 2.1-4 4.5-3.7-0.3-7 1 1.3-41.1 3.5-82-19.9 47.8-47.5 91-23.5 6-47 12-2.4 0.4-4-1 52-61.3 99-126.5 6.7-1.9 13-5 12.4-10 17-25.5z"/><path fill-rule="evenodd" class="ae" d="m1191.5 445.5q-21.2 1.5-43 1 0.5 14.3-1 28 0-14.5 0-29 22 0 44 0z"/><path fill-rule="evenodd" class="af" d="m634.5 402.5q25.8 43.1 49.5 88 14.6 19.1 28 39 13.4 20.6 12.5 45-4.9 15-21 13.5-1.3 1.3-2.5 2.5-2.9 9.7-7 19-3.5 5.3-8.5 9-21.6 7.8-44 5 6.5 0.2 13-0.5-4.4-1-8-3.5 8.4-42.9-25-70.5-9.7-5.8-21-6.5-10.1-0.2-20 1 1.7-2.4 4-4.5 9.3-5.4 19-10 43.3-17.3 80.5 10.5-3.4-8.4-11.5-13.5-11.1-7-24-9 4.7-2.6 10-4 7.6-1.1 15-3 3.8-3.4-1-6-5.5-1-11 0-17.4 4.8-34 12-10.2 4.4-17.5-3.5-7.4-11.9-16-23-5.9-16.1-2-33 6.3-20.7 19-38 0.3-3.8 1.5-7 12.7-0.2 22-9z"/><path fill-rule="evenodd" class="ag" d="m1387.5 508.5q5.2-8.1 15-10.5 14.8-3 30-3-13.4-2.4-27-1-8.2 2.4-16 5.5 18.2-24.8 47-13.5 10.3 4.3 17 13-16.9 23.9-46 20-10.7-4.1-20-10.5z"/><path fill-rule="evenodd" class="ah" d="m320.5 403.5q16.1 29.7 31.5 60 16.3 23.6 35.5 45-14.7-1.6-28 5.5-34.8 1.4-62 23-5.5 3.2-10.5-0.5-1-2.5 0-5 5-6.8 11.5-12 30.8-18.4 65.5-9-17.3-45.2-39-89-10.5-19-24-36-27-31.4-68.5-33.5 24.6-3.7 47 8 25.4 17.1 41 43.5z"/><path fill-rule="evenodd" class="ai" d="m573.5 544.5q-21.9 4.8-44 9 27.6-43.2 47.5-91-2.2 40.9-3.5 82z"/><path fill-rule="evenodd" class="aj" d="m387.5 508.5q-3 3.3-5.5 7-2.9 12.6 1 25 9.5 37.3 41.5 58 5.9 3.8 13 4 2.1 1.1 3 3.5-23.6 29.8-61 38.5-2.5-10.9-3-23-1 0.5-2 1-22.9-4.8-46-9 1.5 0 3 0-5-15.2-8.5-31-2.9-24.3 8-46 5.2-9.3 14.5-14.5-29.2 10.7-39.5 40.5-4.7 13.2-3 27 4.5 2.1 6-3-0.4-14.9 8-27-4 26.8 3.5 53-23.5-3.7-47-7-10-11-19-23 1.5-1 3-2 1-4 2-8 1.4-1.7 2.5 0 0-2 0-4 9.1-8.6 18.5-17.5-1-4.1-1-8 5.6-1.5 0-4 2-1.5 0-3 4-4.5 8-9-4.8-3-1.5-7.5 4.4-2.9 8-7 0.5 0.5 1 1 3.5-2 7-4 1.1 0.9 2.5 1.5-2.4 1.3-1 3-3.4 1.9-6 5 0.3 0.6 1 0.5-6.5 5.2-11.5 12-1 2.5 0 5 5 3.7 10.5 0.5 27.2-21.6 62-23 13.3-7.1 28-5.5z"/><path fill-rule="evenodd" class="ak" d="m1382.5 485.5q-4.1 8.4-5.5 18-1.7 9-1 18 3.3-13.2 13.5-22 7.8-3.1 16-5.5 13.6-1.4 27 1-15.2 0-30 3-9.8 2.4-15 10.5-6.4 7.8-7 18-1.4 1.6-1 4 0.4 4.9-1 9.5-6.5 0.7-13 0.5 0-5 0-10 0-1 0-2 1-25.4-8-49-1.8-5.1-4.5-10-15.8-24-38.5-42 0.5-0.5 1-1 14.8 10.1 27.5 23 9.6 12.4 18.5 25 2.9 7.9 5.5 16 1.4 8.6 3.5 17 3-11.5 6-23 13.1-38.1 44-64 0.5 0.3 1 0.5-27 27.7-39 64.5z"/><path fill-rule="evenodd" class="al" d="m1108.5 530.5q-14-0.5-28-0.5 2.7 27.7 5 55.5 0.2 2.5-0.5 5-3.7 2.2-7.5 4-1.9-1.8-2-5-1.8-18-4-36-60.6-6-121-12-0.1-7.1 1-14 1.4-2.1 1-5 67 2.3 134 5.5 11.3 0.3 22 2.5z"/><path fill-rule="evenodd" class="am" d="m221.5 527.5q5.5 3.4 12 5.5 2.3 1.7 2 4.5-0.5 1-1 2-9.3 3.4-19 5.5-38 5-76 0-8.3-1.8-16-5.5-1 6.5-2 13-0.9-0.2-1-1 1.2-8.2 1.5-17 14.6-8.1 31.5-8.5 25.5-1 51 0 7.8 1 15.5 2.5 1.1-0.1 1.5-1z"/><path fill-rule="evenodd" class="an" d="m152.5 529.5q26-0.3 52 0.5 10 1.5 20 3 11.6 1.4 2 6-44.3 7.8-89 2-3.3-1.6-7-2-2.1-0.6-3-2.5 2.3-2.9 6-3.5 9.7-1.7 19-3.5z"/><path fill-rule="evenodd" class="ao" d="m328.5 613.5q-4.2 0.3-8-1-7.5-26.2-3.5-53-8.4 12.1-8 27-1.5 5.1-6 3-1.7-13.8 3-27 10.3-29.8 39.5-40.5-9.3 5.2-14.5 14.5-10.9 21.7-8 46 3.5 15.8 8.5 31-1.5 0-3 0z"/><path fill-rule="evenodd" class="ap" d="m1429.5 558.5q-1 25.9-7 51-1.7 7-4.5 14-5.2 4.9-12.5 5.5-32 4.4-64 0.5-4.1-2.4-9-3.5-3.8-4.2-5-9.5-1.8-7.2-4-14-5.1-22.7-6-46-0.3-8.5 0.5-17 5.8 3.5 12.5 4.5 36.3 5.8 73 2 13.3-1.3 25.5-6.5 0.8 9.5 0.5 19z"/><path fill-rule="evenodd" class="aq" d="m234.5 539.5q1 6.7 1 14-1.3 29.5-3 59 0 3 0 6-22.1 6.1-44 13-3.5 0.9-6.5 3-1.8 6 4.5 5 0 6.5 0 13-13.1 2-25 7-1.4 0.7-2.5 2-0.7 3.5-0.5 7 1.5 0 3 0 0.4 2.4-1 4-1.1-2.3-3-4 0-3.5 0-7-11.7 0.1-22-5.5-3.9-3.2-6-7.5-2.3-9.8-2-20-23.6 2.4-35-18-11-21.9-3.5-45 10.5-18.6 31.5-14 0.1 0.8 1 1 1-6.5 2-13 7.7 3.7 16 5.5 38 5 76 0 9.7-2.1 19-5.5z"/><path fill-rule="evenodd" class="ar" d="m1380.5 526.5q-0.2 1.6 0.5 3 24.9-3.2 48.5 5.5 2 11.9 0 23.5 0.3-9.5-0.5-19-12.2 5.2-25.5 6.5-36.7 3.8-73-2-6.7-1-12.5-4.5-0.8 8.5-0.5 17-2-10.6 0-21.5 3.3-1.9 7-3 20.2-4.5 41-3.5 0 1 0 2-19.2-0.5-38 3.5-4.7 0.2-3 4 21.9 5.5 44.5 4.5 26 0.6 51.5-4.5 1.8-0.6 3-2-3.9-1.8-8-3-17.9-2.9-36-2.5-0.4-2.4 1-4z"/><path fill-rule="evenodd" class="as" d="m1365.5 530.5q0 5 0 10 6.5 0.2 13-0.5 1.4-4.6 1-9.5 18.1-0.4 36 2.5 4.1 1.2 8 3-1.2 1.4-3 2-25.5 5.1-51.5 4.5-22.6 1-44.5-4.5-1.7-3.8 3-4 18.8-4 38-3.5z"/><path fill-rule="evenodd" class="at" d="m600.5 542.5q35 10 42 46-1 10.4-3.5 21-1.3 3.9-4.5 6.5-30.7 2.5-61 4.5-42.4 1.5-85 1-17.3 0.5-34-1 3.6 0.5 7-1 18.2-24 21-54 23.5-6 47-12 22.1-4.2 44-9 3.3-1.3 7-1 9.9-1.2 20-1z"/><path fill-rule="evenodd" class="au" d="m950.5 541.5q60.4 6 121 12 2.2 18 4 36 0.1 3.2 2 5-8.2 1.7-17 0.5-57-5.2-114-9.5 0-6 0-12 1.2-15.9 4-32z"/><path fill-rule="evenodd" class="av" d="m235.5 537.5q1 11.8 2 24 1 0.8 1.5 2 1.8-3.2 3.5 1-0.9 0.4-1 1.5 8 19.6 15.5 39.5 0.7 3.1 3.5 4-12.5 3.3-25 8-1.2-4.4-1.5-9-0.3 2.3-1.5 4 1.7-29.5 3-59 0-7.3-1-14 0.5-1 1-2z"/><path fill-rule="evenodd" class="aw" d="m109.5 566.5q7.2-0.2 14 2 1.8 22.4 2 45-15.2 0.5-20.5-14-6.1-13.9-1-28 2.6-2.9 5.5-5z"/><path fill-rule="evenodd" class="ax" d="m924.5 578.5q-37.7 9.2-76 17.5-3.5 0.4-6 2.5-3.7 3-3 8-56.1-3.2-112-9-3.6 0.1-7 1 2.6-7.3 4-15 56.5-3.9 113-6.5 43.5-1.1 87 1.5z"/><path fill-rule="evenodd" class="ay" d="m242.5 564.5q5.3 9.5 12 18 9 12 19 23-6.6 1.8-13 4-2.8-0.9-3.5-4-7.5-19.9-15.5-39.5 0.1-1.1 1-1.5z"/><path fill-rule="evenodd" class="az" d="m724.5 574.5q0 4.5 0 9-1.4 7.7-4 15-10 22.4-35 20 5-3.7 8.5-9 4.1-9.3 7-19 1.3-1.3 2.5-2.5 16.1 1.5 21-13.5z"/><path fill-rule="evenodd" class="aA" d="m946.5 573.5q0 6 0 12 57 4.3 114 9.5 8.8 1.2 17-0.5 3.8-1.8 7.5-4 0.7-2.5 0.5-5 20.5 2 41 3 8.3 1.6 17 3-31.4 12-63 24-119.1-7.5-238-17 2.5-2.1 6-2.5 38.3-8.3 76-17.5 11-2.5 22-5z"/><path fill-rule="evenodd" class="aB" d="m478.5 564.5q1.6 1.4 4 1-2.8 30-21 54-3.4 1.5-7 1-9.1-0.1-18-1.5 6.3-6.8 11.5-14.5 3.9-12.6-4.5-3.5-2.8 1.7-6 1.5-7.1-0.2-13-4 0.1-0.8 1-1 9.4 3.7 19 0.5 18.5-15.3 34-33.5z"/><path fill-rule="evenodd" class="aC" d="m1126.5 588.5q63.1 3.3 126 8.5 25.5 1.6 50 8.5 3.3 2.1 2.5 6-3.8 3.3-8.5 5.5-18.6 6.4-38 10-78.6 0.9-157-4.5 21.9-8.1 44-16.5 4.2-5 2.5-11.5-1.7-2.5-4.5-3-8.7-1.4-17-3z"/><path fill-rule="evenodd" class="aD" d="m1143.5 591.5q2.8 0.5 4.5 3 1.7 6.5-2.5 11.5-22.1 8.4-44 16.5-9.5 3-19 6-0.3-4.7-0.5-10-0.8-1.5-1.5-3 31.6-12 63-24z"/><path fill-rule="evenodd" class="aE" d="m839.5 606.5q0 3.1 2 5.5 4.3 1.7 9 2 112.3 7.6 224.5 16.5 4.2 0.1 7.5-2 9.5-3 19-6 78.4 5.4 157 4.5 19.4-3.6 38-10 4.7-2.2 8.5-5.5 0.8-3.9-2.5-6 10.5 0.4 21 1 0-2 0-4 2.2 6.8 4 14-3.5 3.7-9 4.5-2.9 1.9-1 4.5 11.6 4.1 24 4 32 3.9 64-0.5 7.3-0.6 12.5-5.5 2.8-7 4.5-14 0 2 0 4 24.3 2 48 7.5 5.6 1.4 9.5 5.5 0.4 4.2-3.5 6.5-18.8 9.1-39 14-102.1 21.3-206 30-325.5 26.7-652 17-92.1-2.6-184-7.5 8.9-3.2 17-8.5-1.4-2.2-4-3-5.7-2.6-12-2.5 0-9.5 0-19 26.4-0.9 52-7.5 1.8-2.4-1-4-11.2-3.6-23-5-2-1 0-2 2.3-0.3 4-1.5 73.3-3.2 146-9 27.3-0.4 54.5-2 5.8 0.3 11.5 1 0.5 0 1 0 22.4 2.8 44-5 25 2.4 35-20 3.4-0.9 7-1 55.9 5.8 112 9z"/><path fill-rule="evenodd" class="aF" d="m842.5 598.5q118.9 9.5 238 17 0.7 1.5 1.5 3 0.2 5.3 0.5 10-3.3 2.1-7.5 2-112.2-8.9-224.5-16.5-4.7-0.3-9-2-2-2.4-2-5.5-0.7-5 3-8z"/><path fill-rule="evenodd" class="aG" d="m642.5 588.5q1.9 12.3-0.5 25-1.7 4.5-6.5 5-31 0.9-62 2 30.3-2 61-4.5 3.2-2.6 4.5-6.5 2.5-10.6 3.5-21z"/><path fill-rule="evenodd" class="aH" d="m273.5 605.5q23.5 3.3 47 7 3.8 1.3 8 1 23.1 4.2 46 9-35.2 10.9-70 23-58.6-5.5-117-12.5 0.8-0.6 1-1.5 21.9-6.9 44-13 0-3 0-6 1.2-1.7 1.5-4 0.3 4.6 1.5 9 12.5-4.7 25-8 6.4-2.2 13-4z"/><path fill-rule="evenodd" class="aI" d="m92.5 610.5q11.4 20.4 35 18-0.3 10.2 2 20 0 0.5 0 1-15.2-0.3-30 3 1.1-1.2 3-1.5-31.5-4.6-62-13-9-2.4-17-7-4.3-2.7-2-7 6.7-3.4 14-5 28.8-5 57-8.5z"/><path fill-rule="evenodd" class="aJ" d="m600.5 542.5q11.3 0.7 21 6.5 33.4 27.6 25 70.5 3.6 2.5 8 3.5-6.5 0.7-13 0.5-0.5 0-1 0-3.5-1.5-5-5 4.8-0.5 6.5-5 2.4-12.7 0.5-25-7-36-42-46z"/><path fill-rule="evenodd" class="aK" d="m1327.5 616.5q1.2 5.3 5 9.5 4.9 1.1 9 3.5-12.4 0.1-24-4-1.9-2.6 1-4.5 5.5-0.8 9-4.5z"/><path fill-rule="evenodd" class="aL" d="m379.5 644.5q-3.2 0.7-7 0.5-30.7 11-61 21.5-1.5 0-3 0 0.4-8.6-1.5-17-3.2-5.2-3.5 0-57.8-7-116-11 0.5 8.3-1 16 0-1 0-2 0-6.5 0-13-6.3 1-4.5-5 3-2.1 6.5-3-0.2 0.9-1 1.5 58.4 7 117 12.5 34.8-12.1 70-23 1-0.5 2-1 0.5 12.1 3 23z"/><path fill-rule="evenodd" class="aM" d="m635.5 618.5q1.5 3.5 5 5-5.7-0.7-11.5-1-27.2 1.6-54.5 2-7.5-0.4-15-1-30.5 2.6-61 4 2.8-1 6-2 0.5-1 1-2-8.7-1-17-2 42.6 0.5 85-1 31-1.1 62-2z"/><path fill-rule="evenodd" class="aN" d="m574.5 624.5q-72.7 5.8-146 9 0-1.4 3-1.5-4.5-0.7-9-0.5 37.7-3.3 76-4 30.5-1.4 61-4 7.5 0.6 15 1z"/><path fill-rule="evenodd" class="aO" d="m303.5 649.5q0.2 9.5-0.5 19-1.8 0.9-4 1-54.8-5.1-109.5-11.5-2.4-0.4-3-2.5 0-0.5 0-1 1.5-7.7 1-16 58.2 4 116 11z"/><path fill-rule="evenodd" class="aP" d="m422.5 631.5q4.5-0.2 9 0.5-3 0.1-3 1.5-1.7 1.2-4 1.5-2 1 0 2 11.8 1.4 23 5 2.8 1.6 1 4-25.6 6.6-52 7.5-0.5 0-1 0-0.5 0-1 0 2.1-3.1-2-3-0.6-1.1-2-1.5 17.6-6.1 32-17.5z"/><path fill-rule="evenodd" class="aQ" d="m454.5 620.5q16.7 1.5 34 1 8.3 1 17 2-0.5 1-1 2-3.2 1-6 2-38.3 0.7-76 4-14.4 11.4-32 17.5 1.4 0.4 2 1.5-5.6 1.2-11 3-0.7 0.1-1-0.5 1-0.5 2-1-3.7-1.8-5.5-5.5-2.2 3.6-6.5 4.5-25 8.8-50 17.5-4.5-1.2-9-2 30.3-10.5 61-21.5 3.8 0.2 7-0.5 37.4-8.7 61-38.5-0.9-2.4-3-3.5 3.2 0.2 6-1.5 8.4-9.1 4.5 3.5-5.2 7.7-11.5 14.5 8.9 1.4 18 1.5z"/><path fill-rule="evenodd" class="aR" d="m129.5 649.5q-1.6 9.5 5 16-22.4 0.5-44-5.5-4.8-0.9-3-5 5.7-2.7 12-2.5 14.8-3.3 30-3z"/><path fill-rule="evenodd" class="aS" d="m129.5 648.5q2.1 4.3 6 7.5 10.3 5.6 22 5.5 0 3.5 0 7-11.7 0-23-3-6.6-6.5-5-16 0-0.5 0-1z"/><path fill-rule="evenodd" class="aT" d="m394.5 653.5q0.5 0 1 0 0 13 0 26-42.3 12.3-83 28-1.5 0-3 0 0-2.5 0-5 0-11 0-22 42.4-13.8 85-27z"/><path fill-rule="evenodd" class="aU" d="m255.5 675.5q23.7 3.7 48 5 0 10 0 20-67.5-7.1-135-15.5-1.5-9.1-1-18.5 44 4.5 88 9z"/><path fill-rule="evenodd" class="aV" d="m186.5 652.5q0 1 0 2 0 0.5 0 1-6.3-1-5.5 5 4 2 8.5 2.5 55.6 4.9 111 11 4.2 1.4 8 3.5 0.9 1.3 1 3 0 11 0 22-2 0-4 0 0.2-10.5-0.5-21-0.3 9.8-1.5 19 0-10 0-20-24.3-1.3-48-5 1.1-1.2 3-1.5-32.7-5.7-66-7-10.8-2.9-22-4.5-2.5 0.5-5 1-1 2-3 3 0.5-3.8-1-7 11.9-5 25-7z"/><path fill-rule="evenodd" class="aW" d="m392.5 650.5q4.1-0.1 2 3-42.6 13.2-85 27-0.1-1.7-1-3 36.3-12.6 73-24 5.4-1.8 11-3z"/><path fill-rule="evenodd" class="aX" d="m311.5 666.5q4.5 0.8 9 2 25-8.7 50-17.5 4.3-0.9 6.5-4.5 1.8 3.7 5.5 5.5-1 0.5-2 1 0.3 0.6 1 0.5-36.7 11.4-73 24-3.8-2.1-8-3.5-55.4-6.1-111-11-4.5-0.5-8.5-2.5-0.8-6 5.5-5 0.6 2.1 3 2.5 54.7 6.4 109.5 11.5 2.2-0.1 4-1 0.7-9.5 0.5-19 0.3-5.2 3.5 0 1.9 8.4 1.5 17 1.5 0 3 0z"/><path fill-rule="evenodd" class="aY" d="m395.5 653.5q0.5 0 1 0 0 9.5 0 19 6.3-0.1 12 2.5 2.6 0.8 4 3-8.1 5.3-17 8.5-34.4 12.5-70 20.5-6.5 0.7-13 0.5 40.7-15.7 83-28 0-13 0-26z"/><path fill-rule="evenodd" class="aZ" d="m161.5 659.5q1.5 3.2 1 7-0.6 10.7 2 21 67.8 9.1 136 16 2.6-0.1 5-1 2 0 4 0 0 2.5 0 5-71.5-7.4-143-15-6.9-1.7-8.5-9-1.8-6.4 2.5-11 1.4-1.6 1-4-1.5 0-3 0-0.2-3.5 0.5-7 1.1-1.3 2.5-2z"/><path fill-rule="evenodd" class="b0" d="m166.5 692.5q71.5 7.6 143 15-3.5 1-7.5 1-67.1-3.5-133.5-13.5-1.3-1.1-2-2.5z"/><path fill-rule="evenodd" class="b1" d="m255.5 675.5q-44-4.5-88-9-0.5 9.4 1 18.5 67.5 8.4 135 15.5 1.2-9.2 1.5-19 0.7 10.5 0.5 21-2.4 0.9-5 1-68.2-6.9-136-16-2.6-10.3-2-21 2-1 3-3 2.5-0.5 5-1 11.2 1.6 22 4.5 33.3 1.3 66 7-1.9 0.3-3 1.5z"/></svg>